<svg width="6" height="15" viewBox="0 0 6 15" fill="none" xmlns="http://www.w3.org/2000/svg">
<path fill-rule="evenodd" clip-rule="evenodd" d="M1.11173 7.50003C1.15387 9.58272 1.82939 11.5818 3.01938 13.1942C4.20937 11.5818 4.88489 9.58272 4.92703 7.50003C4.88489 5.41735 4.20937 3.41825 3.01938 1.80591C1.82939 3.41825 1.15387 5.41735 1.11173 7.50003ZM3.01938 1.00003L2.63764 0.677124C1.05511 2.54798 0.160359 4.96955 0.111726 7.49039C0.111602 7.49682 0.111602 7.50325 0.111726 7.50968C0.160359 10.0305 1.05511 12.4521 2.63764 14.3229C2.73264 14.4353 2.87228 14.5 3.01938 14.5C3.16648 14.5 3.30612 14.4353 3.40112 14.3229C4.98365 12.4521 5.8784 10.0305 5.92703 7.50968C5.92716 7.50325 5.92716 7.49682 5.92703 7.49039C5.8784 4.96955 4.98365 2.54798 3.40112 0.677124L3.01938 1.00003Z" fill="white"/>
</svg>
